# xmcd CD database file
#
# Track frame offsets:
#	150
#	33462
#	82589
#	105539
#	126463
#	154970
#
# Disc length: 2219 seconds
#
# Revision: 1
# Processed by: cddbd v1.5.1PL2 Copyright (c) Steve Scherf et al.
# Submitted via: CDex 1.50
#
DISCID=4208a906
DTITLE=The modern jazz quartet - Pyramid
DYEAR=1960
DGENRE=Jazz
TTITLE0=Romanie
TTITLE1=Pyramid
TTITLE2=It don`t mean a thing (If it ain`t got that swing)
TTITLE3=Django
TTITLE4=How high the moon
TTITLE5=Vendome
EXTD=YEAR: 1960
EXTT0=
EXTT1=
EXTT2=
EXTT3=
EXTT4=
EXTT5=
PLAYORDER=
